<?xml version="1.0" encoding="UTF-8"?>
<svg id="Layer_1" data-name="Layer 1" xmlns="http://www.w3.org/2000/svg" viewBox="0 0 181 145">
  <defs>
    <style>
      .cls-1 {
        fill: #fff;
      }
    </style>
  </defs>
  <g>
    <path class="cls-1" d="M164.12,75.62v4.48h2.26c2.02,0,3.03-.75,3.03-2.24,0-.84-.27-1.42-.81-1.75-.54-.33-1.46-.49-2.76-.49h-1.72ZM159.27,72.07h8.69c1.97,0,3.54.57,4.7,1.7,1.16,1.13,1.74,2.48,1.74,4.03s-.57,2.98-1.72,4.12c-1.15,1.14-2.71,1.72-4.7,1.72h-3.87v7.76h-4.86v-19.33Z"/>
    <polygon class="cls-1" points="165.83 116.76 165.83 107.74 158.14 97.42 164.03 97.42 168.26 103.5 172.51 97.42 178.38 97.42 170.69 107.74 170.69 116.76 165.83 116.76"/>
    <g>
      <path class="cls-1" d="M120.8,63.88h-.05c0-.53,0-1.06-.03-1.6.03.51.05,1.05.07,1.6Z"/>
      <path class="cls-1" d="M88.55,15.47c-2.85-.7-5.82-1.07-8.88-1.07-18.83,0-34.37,13.96-36.67,32.02H2.44C13.96,24.9,36.8,10.23,63.09,10.23c2.52,0,5.02.14,7.48.4l.28.03c4.75.58,11.16,1.89,17.71,4.8Z"/>
      <polygon class="cls-1" points="2.59 52.3 2.59 54.82 7.61 54.82 7.61 66.06 11.06 66.06 11.06 54.82 16.09 54.82 16.09 52.3 2.59 52.3"/>
      <polygon class="cls-1" points="31.58 52.3 31.58 66.06 28.13 66.06 28.13 60.49 21.22 60.49 21.22 66.06 17.76 66.06 17.76 52.3 21.22 52.3 21.22 57.83 28.13 57.83 28.13 52.3 31.58 52.3"/>
      <path class="cls-1" d="M45.04,66.06h-10.88v-13.75h8.56c0,.31-.01.62-.01.94,0,.53.01,1.06.03,1.59h-5.13v2.88h5.37c.1.85.24,1.69.4,2.52h-5.77v3.31h6.57c.25.86.53,1.7.85,2.52Z"/>
      <polygon class="cls-1" points="17.51 72.07 17.51 83.89 7.1 72.07 2.65 72.07 2.65 91.41 7.5 91.41 7.5 79.02 18.26 91.41 22.37 91.41 22.37 72.07 17.51 72.07"/>
      <path class="cls-1" d="M37.09,87.64c1.84,0,3.33-.54,4.45-1.63,1.13-1.08,1.69-2.51,1.69-4.27s-.56-3.2-1.69-4.28c-1.13-1.08-2.61-1.62-4.45-1.62s-3.34.54-4.47,1.62c-1.13,1.08-1.7,2.51-1.7,4.28s.57,3.19,1.7,4.27c1.13,1.08,2.62,1.63,4.47,1.63M37.09,71.83c3.32,0,6.01.99,8.07,2.98,2.06,1.99,3.08,4.3,3.08,6.94s-1.04,5-3.13,6.96c-2.08,1.96-4.76,2.95-8.02,2.95s-5.99-.98-8.07-2.93c-2.07-1.96-3.11-4.28-3.11-6.98s1.03-4.96,3.09-6.95c2.06-1.98,4.76-2.98,8.09-2.98"/>
      <path class="cls-1" d="M56.61,75.62v4.4h2.57c.82,0,1.47-.19,1.95-.57.48-.38.72-.93.72-1.64,0-1.46-.93-2.19-2.78-2.19h-2.46ZM51.75,72.07h8.71c1.89,0,3.42.54,4.6,1.63,1.18,1.08,1.77,2.4,1.77,3.93,0,2.13-1.12,3.71-3.35,4.73.98.44,1.91,1.63,2.79,3.57.88,1.94,1.73,3.76,2.55,5.48h-5.33c-.32-.64-.87-1.85-1.66-3.64-.79-1.79-1.47-2.94-2.03-3.45-.56-.51-1.17-.76-1.81-.76h-1.4v7.85h-4.86v-19.33Z"/>
      <polygon class="cls-1" points="87.72 72.07 87.72 75.62 80.66 75.62 80.66 91.41 75.8 91.41 75.8 75.62 68.74 75.62 68.74 72.07 87.72 72.07"/>
      <polygon class="cls-1" points="110.5 72.07 110.5 91.41 105.65 91.41 105.65 83.59 95.94 83.59 95.94 91.41 91.08 91.41 91.08 72.07 95.94 72.07 95.94 79.84 105.65 79.84 105.65 72.07 110.5 72.07"/>
      <path class="cls-1" d="M132.17,85.51v4.22c-2.44,1.28-4.99,1.92-7.66,1.92-3.46,0-6.22-.95-8.27-2.84-2.05-1.9-3.08-4.23-3.08-7.01s1.08-5.13,3.24-7.07c2.16-1.94,4.99-2.91,8.48-2.91,2.78,0,5.14.57,7.06,1.7v4.3c-2.36-1.32-4.6-1.98-6.71-1.98s-3.77.55-5.09,1.65c-1.32,1.1-1.97,2.51-1.97,4.21s.65,3.13,1.95,4.25c1.3,1.12,2.96,1.67,4.99,1.67,1,0,1.97-.13,2.9-.39.93-.26,2.32-.84,4.16-1.74"/>
      <path class="cls-1" d="M148.21,84.21l-3.16-7.51-2.86,7.51h6.02ZM147.79,72.07l8.66,19.33h-5.22l-1.61-3.82h-8.73l-1.46,3.82h-5.15l7.87-19.33h5.63Z"/>
      <path class="cls-1" d="M17.08,97.42h4.86v10.98c0,2.82-.84,4.96-2.53,6.42-1.68,1.46-4.09,2.19-7.21,2.19s-5.49-.74-7.19-2.21c-1.71-1.48-2.56-3.6-2.56-6.37v-11h4.87v11.11c0,1.35.44,2.43,1.33,3.24.89.81,2.05,1.22,3.5,1.22s2.69-.42,3.59-1.25c.9-.83,1.35-2.01,1.35-3.54v-10.78Z"/>
      <polygon class="cls-1" points="45.15 97.42 45.15 116.76 41.05 116.76 30.29 104.37 30.29 116.76 25.43 116.76 25.43 97.42 29.88 97.42 40.29 109.24 40.29 97.42 45.15 97.42"/>
      <rect class="cls-1" x="48.95" y="97.42" width="4.86" height="19.33"/>
      <polygon class="cls-1" points="75.94 97.42 66.93 117.01 64.82 117.01 55.38 97.42 60.67 97.42 65.82 108.47 70.71 97.42 75.94 97.42"/>
      <polygon class="cls-1" points="91.8 113.21 91.8 116.76 77.42 116.76 77.42 97.42 91.6 97.42 91.6 100.97 82.28 100.97 82.28 105.02 91.17 105.02 91.17 108.56 82.28 108.56 82.28 113.21 91.8 113.21"/>
      <path class="cls-1" d="M99.99,100.97v4.4h2.57c.82,0,1.47-.19,1.95-.57.48-.38.72-.93.72-1.64,0-1.46-.93-2.19-2.78-2.19h-2.46ZM95.14,97.42h8.71c1.89,0,3.42.54,4.6,1.63,1.18,1.08,1.77,2.4,1.77,3.93,0,2.13-1.12,3.71-3.35,4.73.98.44,1.91,1.63,2.79,3.57.88,1.94,1.73,3.76,2.55,5.48h-5.33c-.32-.64-.87-1.85-1.66-3.64-.79-1.79-1.47-2.94-2.03-3.45-.56-.51-1.17-.76-1.81-.76h-1.4v7.85h-4.86v-19.33Z"/>
      <path class="cls-1" d="M127.33,98.67v3.78c-2.59-1.15-4.65-1.73-6.18-1.73-.87,0-1.57.15-2.09.44-.52.29-.77.68-.77,1.16,0,.37.19.72.56,1.05.37.33,1.28.76,2.72,1.29,1.44.53,2.6,1.01,3.46,1.47.86.45,1.61,1.09,2.24,1.91.63.82.94,1.86.94,3.11,0,1.79-.69,3.22-2.06,4.28-1.37,1.06-3.18,1.59-5.42,1.59-2.42,0-4.76-.62-7.03-1.87v-4.17c1.3.87,2.46,1.5,3.46,1.9,1,.4,2.07.59,3.2.59,1.91,0,2.86-.59,2.86-1.78,0-.41-.19-.79-.57-1.15-.38-.36-1.3-.8-2.76-1.31-1.46-.52-2.61-1-3.46-1.44-.85-.44-1.59-1.08-2.2-1.9-.62-.82-.93-1.87-.93-3.16,0-1.66.67-3,2.02-4.02,1.35-1.02,3.15-1.53,5.41-1.53,2.08,0,4.28.5,6.6,1.5"/>
      <rect class="cls-1" x="130.79" y="97.42" width="4.86" height="19.33"/>
      <polygon class="cls-1" points="157.36 97.42 157.36 100.97 150.3 100.97 150.3 116.76 145.44 116.76 145.44 100.97 138.38 100.97 138.38 97.42 157.36 97.42"/>
      <path class="cls-1" d="M120.72,62.2c-.07-1.25-.14-2.28-.16-2.75.08.92.14,1.83.16,2.75Z"/>
      <path class="cls-1" d="M177.4,66.06h-56.54c0-.7-.03-1.45-.06-2.18-.02-.55-.05-1.09-.07-1.6v-.08c-.03-.91-.08-1.83-.17-2.75v-.17s-.02-.1-.02-.1c-2.13-23.77-20.39-50.55-57.51-50.55-9.41,0-18.39,1.84-26.6,5.16C50.64,5.97,66.98,1.52,84.38,1.52c41.9,0,77.71,25.86,92.09,62.36l.94,2.18Z"/>
    </g>
  </g>
  <polyline class="cls-1" points="2.44 127.22 178.38 127.22 178.38 126.03 2.44 126.03"/>
  <g>
    <path class="cls-1" d="M7.12,133.71v1.16h-3.2v1.98h3.2v1.17h-3.2v3.36h-1.48v-7.67h4.68Z"/>
    <path class="cls-1" d="M10.84,136.15c.53,0,1.02.11,1.45.34.44.22.77.54,1.01.94.24.4.36.86.36,1.37s-.11,1-.34,1.4c-.23.4-.57.71-1.01.94s-.93.35-1.47.35-1.03-.11-1.47-.35-.77-.55-1-.94c-.23-.4-.34-.86-.34-1.4s.12-.97.36-1.38c.24-.4.58-.71,1.01-.93s.91-.33,1.44-.33ZM9.45,138.79c0,.51.12.92.38,1.23.25.31.59.46,1.01.46s.79-.15,1.04-.44c.25-.29.38-.71.38-1.26s-.13-.92-.38-1.21c-.26-.28-.6-.42-1.04-.42-.41,0-.74.15-1,.45s-.38.7-.38,1.19Z"/>
    <path class="cls-1" d="M17.68,136.15c.18,0,.36.04.53.12.17.08.38.21.61.41l-.48,1.18c-.39-.29-.71-.44-.94-.44-.21,0-.41.08-.62.23-.2.15-.37.36-.49.62-.12.26-.18.51-.18.77v2.34h-1.35v-5.13h1.35v1.31h.02c.25-.49.49-.85.74-1.07s.52-.33.82-.33Z"/>
    <path class="cls-1" d="M22.42,136.15c.4,0,.73.09,1,.28.27.18.48.43.61.74.29-.36.58-.61.87-.78.29-.16.6-.24.95-.24.54,0,.98.18,1.31.53s.5.82.5,1.41v3.28h-1.35v-3.06c0-.35-.08-.63-.23-.84-.15-.2-.37-.31-.66-.31-.41,0-.81.27-1.19.8v3.41h-1.35v-3.08c0-.35-.08-.63-.24-.83-.16-.2-.38-.3-.65-.3-.22,0-.42.06-.6.19-.18.13-.38.33-.59.61v3.41h-1.35v-5.13h1.35v.72c.25-.28.49-.48.75-.62.25-.13.54-.2.87-.2Z"/>
    <path class="cls-1" d="M31.26,136.15c.75,0,1.35.24,1.79.73s.66,1.15.66,2v.2h-3.63c.05.46.23.81.51,1.06.29.25.68.37,1.18.37.32,0,.63-.06.93-.17.3-.11.61-.28.93-.51v1.01c-.6.42-1.33.64-2.19.64-.81,0-1.47-.24-1.98-.73-.51-.49-.77-1.13-.77-1.94s.24-1.42.71-1.91,1.09-.74,1.85-.74ZM32.44,138.26c-.04-.37-.15-.66-.34-.88-.19-.21-.45-.32-.79-.32s-.61.1-.82.3-.34.5-.39.89h2.34Z"/>
    <path class="cls-1" d="M37.7,136.15c.18,0,.36.04.53.12.17.08.38.21.61.41l-.48,1.18c-.39-.29-.71-.44-.94-.44-.21,0-.41.08-.62.23-.2.15-.37.36-.49.62-.12.26-.18.51-.18.77v2.34h-1.35v-5.13h1.35v1.31h.02c.25-.49.49-.85.74-1.07s.52-.33.82-.33Z"/>
    <path class="cls-1" d="M40.86,133.71v7.67h-1.35v-7.67h1.35Z"/>
    <path class="cls-1" d="M43.05,136.25l1.21,2.76,1.23-2.76h1.45l-3.54,7.71h-1.45l1.63-3.53-1.99-4.18h1.46Z"/>
    <path class="cls-1" d="M52.44,133.71v7.67h-1.48v-7.67h1.48Z"/>
    <path class="cls-1" d="M60.53,133.71v1.16h-2.72v6.51h-1.48v-6.51h-2.72v-1.16h6.93Z"/>
    <path class="cls-1" d="M62.99,133.71l2.52,3.03,2.52-3.03h1.32v7.67h-1.48v-5.39h-.04l-2.22,2.7h-.21l-2.22-2.7h-.04v5.39h-1.48v-7.67h1.33Z"/>
    <path class="cls-1" d="M75.6,133.71v4.46c0,.46.07.82.21,1.09.14.27.36.49.67.67.31.18.67.26,1.09.26.45,0,.84-.08,1.16-.25.32-.17.55-.39.69-.68s.22-.69.22-1.19v-4.36h1.48v4.56c0,1.03-.31,1.83-.93,2.38-.62.55-1.49.83-2.62.83-.71,0-1.33-.13-1.85-.38-.52-.25-.92-.62-1.19-1.09s-.41-1.04-.41-1.68v-4.61h1.49Z"/>
    <path class="cls-1" d="M85.55,136.15c.55,0,.99.18,1.32.54.33.36.49.84.49,1.42v3.26h-1.35v-3.12c0-.33-.08-.6-.24-.79-.16-.19-.38-.29-.65-.29-.21,0-.4.06-.59.18-.18.12-.38.33-.6.61v3.41h-1.35v-5.13h1.35v.72c.25-.29.5-.5.77-.63s.55-.19.85-.19Z"/>
    <path class="cls-1" d="M89.38,133.88c.21,0,.39.07.54.22.15.15.22.33.22.54s-.07.38-.22.54c-.15.16-.33.23-.54.23s-.38-.08-.54-.23c-.15-.15-.23-.33-.23-.54,0-.21.08-.39.23-.54.15-.15.33-.22.53-.22ZM90.06,136.25v5.13h-1.35v-5.13h1.35Z"/>
    <path class="cls-1" d="M92.25,136.25l1.23,2.97,1.2-2.97h1.44l-2.32,5.23h-.65l-2.35-5.23h1.45Z"/>
    <path class="cls-1" d="M99.11,136.15c.75,0,1.35.24,1.79.73s.66,1.15.66,2v.2h-3.63c.05.46.23.81.51,1.06.29.25.68.37,1.18.37.32,0,.63-.06.93-.17.3-.11.61-.28.93-.51v1.01c-.6.42-1.33.64-2.19.64-.81,0-1.47-.24-1.98-.73-.51-.49-.77-1.13-.77-1.94s.24-1.42.71-1.91,1.09-.74,1.85-.74ZM100.29,138.26c-.04-.37-.15-.66-.34-.88-.19-.21-.45-.32-.79-.32s-.61.1-.82.3-.34.5-.39.89h2.34Z"/>
    <path class="cls-1" d="M105.55,136.15c.18,0,.36.04.53.12.17.08.38.21.61.41l-.48,1.18c-.39-.29-.71-.44-.94-.44-.21,0-.41.08-.62.23-.2.15-.37.36-.49.62-.12.26-.18.51-.18.77v2.34h-1.35v-5.13h1.35v1.31h.02c.25-.49.49-.85.74-1.07s.52-.33.82-.33Z"/>
    <path class="cls-1" d="M108.99,136.15c.28,0,.55.03.8.1s.51.17.79.3v1.08c-.26-.16-.53-.3-.82-.4-.29-.1-.55-.15-.79-.15-.19,0-.35.04-.46.11-.11.07-.16.18-.16.31,0,.08.05.15.14.23.09.08.34.22.75.42.59.3,1,.57,1.23.82.24.25.35.55.35.9,0,.5-.17.88-.52,1.17-.34.28-.81.43-1.39.43-.37,0-.71-.04-1.02-.12-.32-.08-.58-.18-.79-.29v-1.13c.66.37,1.21.55,1.66.55.23,0,.42-.04.56-.12.14-.08.21-.19.21-.33,0-.08-.03-.15-.08-.22s-.13-.13-.23-.2c-.1-.07-.42-.24-.96-.5-.41-.2-.72-.41-.92-.64-.2-.23-.3-.51-.3-.83,0-.45.18-.82.53-1.09.36-.27.82-.41,1.4-.41Z"/>
    <path class="cls-1" d="M112.58,133.88c.21,0,.39.07.54.22.15.15.22.33.22.54s-.07.38-.22.54c-.15.16-.33.23-.54.23s-.38-.08-.54-.23c-.15-.15-.23-.33-.23-.54,0-.21.08-.39.23-.54.15-.15.33-.22.53-.22ZM113.26,136.25v5.13h-1.35v-5.13h1.35Z"/>
    <path class="cls-1" d="M116.06,134.89h.11v1.36h1.76v1.02h-1.76v2.37c0,.23.07.42.21.56s.33.21.57.21c.31,0,.68-.11,1.09-.34v1.08c-.49.22-.94.32-1.37.32-.58,0-1.03-.16-1.35-.47-.32-.31-.49-.74-.49-1.28v-2.45h-.8v-.22l2.04-2.16Z"/>
    <path class="cls-1" d="M119.6,136.25l1.21,2.76,1.23-2.76h1.45l-3.54,7.71h-1.45l1.63-3.53-1.99-4.18h1.46Z"/>
    <path class="cls-1" d="M124.4,139.87c.29,0,.53.11.7.32.18.21.26.5.26.87,0,.48-.16.9-.48,1.28-.32.37-.72.6-1.2.68v-.29c.35-.3.53-.68.53-1.16v-.17c-.42-.08-.63-.33-.63-.75,0-.22.08-.4.23-.55.16-.15.35-.23.58-.23Z"/>
    <path class="cls-1" d="M133.81,133.61c.94,0,1.88.21,2.81.63v1.36c-.93-.47-1.84-.71-2.75-.71-.56,0-1.06.11-1.49.34-.44.22-.77.54-1.01.96s-.36.89-.36,1.4c0,.78.26,1.41.78,1.89.52.48,1.21.72,2.06.72.23,0,.46-.02.67-.06.21-.04.47-.12.77-.23v-1.27h-1.27v-1.16h2.75v3.16c-.38.26-.83.47-1.36.62-.53.15-1.08.22-1.65.22-.81,0-1.54-.17-2.2-.5-.66-.33-1.17-.8-1.54-1.4-.37-.6-.55-1.27-.55-2.01s.19-1.43.56-2.04c.37-.61.89-1.08,1.55-1.42.66-.34,1.4-.5,2.22-.5Z"/>
    <path class="cls-1" d="M139.49,136.25v3.17c0,.33.08.59.25.76.17.17.39.26.66.26.23,0,.44-.07.65-.21.21-.14.38-.34.51-.59v-3.4h1.35v5.13h-1.35v-.7c-.49.53-1.01.8-1.58.8s-.99-.18-1.33-.54c-.34-.36-.51-.83-.51-1.41v-3.28h1.35Z"/>
    <path class="cls-1" d="M147.19,136.15c.18,0,.36.04.53.12.17.08.38.21.61.41l-.48,1.18c-.39-.29-.71-.44-.94-.44-.21,0-.41.08-.62.23-.2.15-.37.36-.49.62-.12.26-.18.51-.18.77v2.34h-1.35v-5.13h1.35v1.31h.02c.25-.49.49-.85.74-1.07s.52-.33.82-.33Z"/>
    <path class="cls-1" d="M150.26,136.25v3.17c0,.33.08.59.25.76.17.17.39.26.66.26.23,0,.44-.07.65-.21.21-.14.38-.34.51-.59v-3.4h1.35v5.13h-1.35v-.7c-.49.53-1.01.8-1.58.8s-.99-.18-1.33-.54c-.34-.36-.51-.83-.51-1.41v-3.28h1.35Z"/>
    <path class="cls-1" d="M159.77,136.25v.96h-.88c.14.17.24.34.3.49.06.15.08.31.08.48,0,.41-.15.79-.46,1.13-.27.3-.74.49-1.39.58-.36.04-.59.09-.71.15-.11.06-.17.14-.17.26,0,.11.07.19.21.24.14.06.37.11.68.16.77.12,1.34.32,1.7.57.36.26.55.59.55,1.01,0,.54-.22.96-.66,1.25-.44.29-1.08.44-1.91.44-.79,0-1.41-.14-1.88-.41-.46-.27-.7-.64-.7-1.1,0-.65.45-1.1,1.35-1.35-.39-.17-.58-.39-.58-.66,0-.36.29-.61.88-.74v-.02c-.4-.11-.72-.31-.95-.59s-.35-.61-.35-.99c0-.55.21-1,.63-1.34.42-.34.96-.51,1.64-.51h2.64ZM155.79,142.39c0,.46.46.69,1.37.69.4,0,.7-.06.93-.19.22-.13.34-.29.34-.5,0-.23-.13-.4-.38-.51-.25-.11-.61-.17-1.08-.17-.35,0-.63.06-.85.19-.22.13-.33.29-.33.49ZM156.11,138.1c0,.27.09.49.28.67.19.18.42.27.69.27s.51-.09.69-.28c.18-.18.27-.42.27-.7,0-.25-.09-.46-.28-.63-.19-.17-.41-.26-.68-.26s-.5.09-.69.28c-.19.18-.28.4-.28.66Z"/>
    <path class="cls-1" d="M163.48,136.15c.18,0,.36.04.53.12.17.08.38.21.61.41l-.48,1.18c-.39-.29-.71-.44-.94-.44-.21,0-.41.08-.62.23-.2.15-.37.36-.49.62-.12.26-.18.51-.18.77v2.34h-1.35v-5.13h1.35v1.31h.02c.25-.49.49-.85.74-1.07s.52-.33.82-.33Z"/>
    <path class="cls-1" d="M167.09,136.15c.66,0,1.16.14,1.51.42.35.28.52.67.52,1.17v2.51c0,.19.08.29.24.29.07,0,.16-.03.28-.09.12-.06.22-.12.3-.19v.78c-.47.29-.9.43-1.3.43-.24,0-.43-.04-.56-.12-.13-.08-.22-.22-.27-.43-.52.37-1.03.55-1.55.55-.37,0-.69-.12-.95-.37-.27-.25-.4-.55-.4-.89,0-.44.13-.79.4-1.05s.73-.48,1.38-.67l1.09-.32v-.23c0-.5-.3-.75-.91-.75-.31,0-.62.07-.93.21-.31.14-.59.35-.84.63v-1.21c.56-.44,1.22-.66,1.99-.66ZM166.27,140c0,.19.06.34.18.45.12.11.27.17.44.17.3,0,.59-.14.89-.41v-1.35c-.38.13-.67.25-.89.36s-.37.23-.47.35c-.1.12-.15.26-.15.43Z"/>
    <path class="cls-1" d="M173.65,136.15c.4,0,.73.09,1,.28.27.18.48.43.61.74.29-.36.58-.61.87-.78.29-.16.6-.24.95-.24.54,0,.98.18,1.31.53s.5.82.5,1.41v3.28h-1.35v-3.06c0-.35-.08-.63-.23-.84-.15-.2-.37-.31-.66-.31-.41,0-.81.27-1.19.8v3.41h-1.35v-3.08c0-.35-.08-.63-.24-.83-.16-.2-.38-.3-.65-.3-.22,0-.42.06-.6.19-.18.13-.38.33-.59.61v3.41h-1.35v-5.13h1.35v.72c.25-.28.49-.48.75-.62.25-.13.54-.2.87-.2Z"/>
  </g>
</svg>